# File created by Blade
# Date/Time:  Mon Nov 18 17:26:10 2013
# Frame Rate: 100.000 fps
#------------------------------------------------------
:FULLY-SPECIFIED
:DEGREES
188
root -40.873324 -3.052702 39.573381 6.624947 -1.824758 19.092082
Spine 22.758920 -1.694818 1.399366
Spine1 8.466205 -0.623033 3.202179
Spine2 -21.721290 -2.704975 -0.416621
NeckDummy -0.142731 0.162944 0.844714 14.032030 -0.733247 -0.018424
Neck 3.605222 -14.604052 42.013222
Head -0.418152 0.053743 0.250969 -5.197591 -5.032160 -2.044669
LeftShoulderDummy -0.185055 0.175733 0.868790 14.032388 -0.896429 0.189299
LeftShoulder 6.894478 -10.739144 17.869286
LeftArm 16.360288 38.398856 18.721813
LeftForeArm 50.635546
LeftForeArmRoll 18.958443
LeftHand -33.674581 -22.924812 11.852327
LeftHandThumb1 14.502159 3.512131
LeftHandIndex1 -0.358095 39.796307
LeftHandPinky1 1.185058 59.654444
RightShoulderDummy -0.135540 0.172714 0.813224 14.010902 0.728541 0.056132
RightShoulder 6.876745 5.100634 7.927349
RightArm -0.231109 62.129654 37.620301
RightForeArm 100.058665
RightForeArmRoll 28.734929
RightHand -44.659422 -20.075826 8.414532
RightHandThumb1 11.523388 7.539143
RightHandIndex1 7.807058 36.142217
RightHandPinky1 11.261683 61.817128
LeftUpLeg -12.593955 24.204770 -39.272314
LeftLeg 39.280630
LeftFoot -0.179076 -0.747063 -1.203037 -23.216035 19.811305 -2.625713
LeftToeBase -2.432715
RightUpLeg -2.208483 16.158238 -29.499139
RightLeg 52.080932
RightFoot -0.566515 0.801830 0.901982 -19.531946 8.938504 -23.485314
RightToeBase -0.860176
189
root -40.710888 -3.049423 39.568412 6.683585 -1.852967 18.987494
Spine 22.699129 -1.740875 1.427882
Spine1 8.450521 -0.647684 3.240489
Spine2 -21.740024 -2.690122 -0.390509
NeckDummy -0.142687 0.163031 0.846271 14.048071 -0.754009 0.013481
Neck 3.504020 -14.620365 41.954706
Head -0.409620 0.055469 0.253096 -5.208919 -4.969160 -1.974527
LeftShoulderDummy -0.184365 0.176466 0.870933 14.049031 -0.916152 0.222902
LeftShoulder 6.855280 -10.733584 17.820902
LeftArm 16.381506 38.290942 18.792213
LeftForeArm 50.549441
LeftForeArmRoll 19.026440
LeftHand -33.729274 -23.059202 11.918754
LeftHandThumb1 14.566587 3.460922
LeftHandIndex1 -0.486616 39.912874
LeftHandPinky1 1.160813 59.783578
RightShoulderDummy -0.135645 0.172158 0.814267 14.026929 0.749983 0.022986
RightShoulder 6.789084 5.112685 7.872283
RightArm -0.000380 62.078707 37.870112
RightForeArm 100.081960
RightForeArmRoll 28.699760
RightHand -44.629471 -20.216844 8.573837
RightHandThumb1 11.835235 7.485829
RightHandIndex1 7.661079 35.653669
RightHandPinky1 11.082321 62.086669
LeftUpLeg -12.289620 24.157004 -39.414255
LeftLeg 39.565519
LeftFoot -0.161504 -0.750458 -1.207122 -23.666306 19.382517 -2.170038
LeftToeBase -2.270863
RightUpLeg -2.390173 16.323769 -29.377935
RightLeg 51.742156
RightFoot -0.567234 0.802784 0.903427 -19.707478 8.939384 -23.260532
RightToeBase -0.878604
190
root -40.537711 -3.049096 39.561615 6.739104 -1.891262 18.849770
Spine 22.645354 -1.817650 1.456436
Spine1 8.432745 -0.659860 3.289287
Spine2 -21.757473 -2.637249 -0.359812
NeckDummy -0.140499 0.160672 0.848572 14.014282 -0.776538 0.049861
Neck 3.459118 -14.642369 41.973597
Head -0.410201 0.057030 0.253516 -5.233069 -4.911392 -2.028601
LeftShoulderDummy -0.182672 0.174761 0.873408 14.014684 -0.939950 0.263482
LeftShoulder 6.805686 -10.751038 17.820435
LeftArm 16.344386 38.225448 18.773124
LeftForeArm 50.512542
LeftForeArmRoll 19.159614
LeftHand -33.778097 -23.042075 11.900482
LeftHandThumb1 14.429679 3.811633
LeftHandIndex1 -0.390958 39.662900
LeftHandPinky1 1.151949 59.581865
RightShoulderDummy -0.133573 0.169056 0.816193 13.993109 0.772755 -0.013775
RightShoulder 6.713374 5.172017 7.793664
RightArm 0.187243 62.063509 38.060210
RightForeArm 100.152768
RightForeArmRoll 28.863720
RightHand -44.690398 -20.140505 8.606842
RightHandThumb1 12.084578 7.629370
RightHandIndex1 7.523780 34.608265
RightHandPinky1 10.923223 61.846788
LeftUpLeg -11.962731 24.124114 -39.539365
LeftLeg 39.855799
LeftFoot -0.134431 -0.749050 -1.220704 -24.245408 19.010730 -1.811518
LeftToeBase -1.850594
RightUpLeg -2.555310 16.493393 -29.260813
RightLeg 51.411369
RightFoot -0.567089 0.797285 0.900441 -19.847068 8.956163 -23.010699
RightToeBase -0.885482
191
root -40.351778 -3.051408 39.550549 6.816658 -1.880960 18.696316
Spine 22.583729 -1.887544 1.502237
Spine1 8.403459 -0.705198 3.367313
Spine2 -21.789610 -2.636065 -0.347206
NeckDummy -0.141576 0.162766 0.851369 13.997538 -0.786044 0.048385
Neck 3.348849 -14.553296 41.925735
Head -0.413375 0.055768 0.254732 -5.225815 -4.959255 -2.050636
LeftShoulderDummy -0.183759 0.177076 0.876394 13.998266 -0.950625 0.271823
LeftShoulder 6.779669 -10.735349 17.723757
LeftArm 16.324189 38.103792 18.729223
LeftForeArm 50.516034
LeftForeArmRoll 19.153692
LeftHand -33.720572 -23.112033 11.904924
LeftHandThumb1 14.494824 3.777772
LeftHandIndex1 -0.462603 39.615140
LeftHandPinky1 1.216140 59.595502
RightShoulderDummy -0.133813 0.170917 0.818743 13.977060 0.780791 -0.014457
RightShoulder 6.646819 5.111597 7.779042
RightArm 0.294252 62.034623 38.200722
RightForeArm 100.178033
RightForeArmRoll 28.794669
RightHand -44.713940 -19.996887 8.754048
RightHandThumb1 11.884373 7.425964
RightHandIndex1 7.191353 33.064110
RightHandPinky1 10.804883 61.361676
LeftUpLeg -11.538554 24.045967 -39.665869
LeftLeg 40.179762
LeftFoot -0.103876 -0.743505 -1.251800 -24.646867 18.780883 -1.801724
LeftToeBase -1.650795
RightUpLeg -2.731645 16.743064 -29.219012
RightLeg 51.131095
RightFoot -0.578342 0.802222 0.895433 -20.013010 8.858115 -22.795188
RightToeBase -0.901431
